<svg xmlns="http://www.w3.org/2000/svg" width="173.357" height="180.402" viewBox="0 0 173.357 180.402">
  <g id="Group_14" data-name="Group 14" transform="translate(-836.085 -409.659)">
    <path id="Path_40" data-name="Path 40" d="M938.453,504.485a19.713,19.713,0,0,0,7.4-11.771c.705-2.959-.2-4.145-3.2-5.106a224.358,224.358,0,0,1-23.292-8.558,38.752,38.752,0,0,1-15.217-12.834c-7.8-10.645-7.759-22.882.351-33.319,7.843-10.092,18.656-15.713,30.645-19.086,22.626-6.363,44.98-5.628,66.758,3.708,7.955,3.41,15.011,8.192,20.336,15.162,8.825,11.552,8.375,24.792-1.283,35.753-8.657,9.826-20.032,14.947-32.4,18.262-.557.15-1.126.257-1.692.371-7.58,1.533-14.73,3.081-21.251,8.453C958.186,501.642,948.085,502.755,938.453,504.485Zm10.5-43.465V423.851h-6.688c.376,12.512.744,24.779,1.116,37.169ZM960.3,423.762c.39,12.645.767,24.892,1.148,37.233h5.494V423.762Zm18.059,0c.383,12.66.754,24.917,1.126,37.234h5.5V423.764ZM950.4,472.4c-.025-2.786-1.826-4.75-4.374-4.768-2.579-.018-4.377,2.069-4.407,5.115a4.447,4.447,0,0,0,4.574,4.51C948.729,477.246,950.43,475.281,950.4,472.4Zm18.237.217a4.684,4.684,0,0,0-4.351-4.848,4.465,4.465,0,0,0-4.67,4.79,4.377,4.377,0,0,0,4.426,4.661A4.652,4.652,0,0,0,968.642,472.62Zm17.9-.162c0-2.865-1.718-4.818-4.338-4.672-2.806.156-4.413,1.651-4.454,4.6-.041,2.925,1.52,4.745,4.159,4.79C984.857,477.227,986.544,475.509,986.541,472.458Z" transform="translate(-19.101 0)"/>
    <path id="Path_41" data-name="Path 41" d="M848.207,576.187l-.9-4.32c4.1,2.114,6.794,4.523,8.4,7.687,1.64,3.24,2.48,6.884,4.387,10.477,1.035-3.059,2.021-6.135,3.116-9.171,1.728-4.791,5-5.7,9.134-2.777a7.024,7.024,0,0,0,3.73,1.252q12.826.161,25.655,0a6.712,6.712,0,0,0,3.678-1.29c3.775-2.818,7.306-1.923,8.992,2.569,1.2,3.2,2.221,6.474,3.628,10.619,2.692-7.572,3.313-15.465,11.866-18.734-.143,1.278-.248,2.206-.367,3.258a2.866,2.866,0,0,0,.839.261,76.509,76.509,0,0,1,8.306.187c1.008.126,1.859,1.51,2.781,2.32-.957.618-1.865,1.668-2.878,1.782-6.32.715-6.293.656-8.123,6.7-2.173,7.179-4.415,14.337-6.621,21.506-.907,2.949-1.93,6-5.615,6.182-3.73.186-5.018-2.7-6.013-5.677-.066-.2-.284-.341-.908-1.059-.846,5.713-1.606,10.969-2.41,16.219q-.811,5.3-1.726,10.591a5.324,5.324,0,0,1-5.472,4.836c-6.928.174-13.867.32-20.789.109-3.491-.107-5.664-2.372-6.191-5.93q-2.356-15.93-4.683-31.864a6.5,6.5,0,0,0-1.26-3.235c-1.045,3.281-2.141,6.547-3.12,9.848-.929,3.135-2.1,6.16-6,6.092-3.692-.065-4.8-2.951-5.708-5.99-2.471-8.294-5.161-16.524-7.531-24.846-.727-2.551-1.834-3.746-4.529-3.391a7.849,7.849,0,0,1-3.434-.155c-.9-.307-1.579-1.258-2.356-1.924.76-.711,1.479-1.974,2.287-2.034C841.569,576.047,844.794,576.187,848.207,576.187Z" transform="translate(0 -49.756)"/>
    <path id="Path_42" data-name="Path 42" d="M907.937,563.511a16.5,16.5,0,1,1,16.68-16.382A16.546,16.546,0,0,1,907.937,563.511Z" transform="translate(-17.036 -37.068)"/>
  </g>
</svg>
