<svg xmlns="http://www.w3.org/2000/svg" width="179" height="179.014" viewBox="0 0 179 179.014">
  <g id="Group_13" data-name="Group 13" transform="translate(-542.99 -121.981)">
    <path id="Path_30" data-name="Path 30" d="M721.99,211.47a89.5,89.5,0,1,1-88.823-89.486A89.5,89.5,0,0,1,721.99,211.47Zm-89.55,87.847a87.821,87.821,0,1,0-87.768-88.083A87.812,87.812,0,0,0,632.44,299.317Z" transform="translate(0 0)" fill="#fff"/>
    <path id="Path_31" data-name="Path 31" d="M832.234,399h5.06c.024.382.064.722.065,1.062,0,8.718.018,17.435,0,26.153A11.2,11.2,0,0,1,825.9,437.676q-34.189.006-68.378.024c-3.106.005-5.965-.553-8.4-2.587a11.043,11.043,0,0,1-4.1-8.834q-.025-23.045,0-46.09c0-3.035-.149-6.091.153-9.1a10.929,10.929,0,0,1,11.067-9.881c7.252-.047,14.5-.016,21.757-.016q23.793,0,47.586,0c6.918,0,11.745,4.792,11.755,11.706,0,3.141,0,6.283,0,9.3-6.125,3.2-12.158,6.356-18.187,9.513Q806.585,398.3,794.02,404.9a1.294,1.294,0,0,1-1.459-.056Q780.85,397.71,769.125,390.6c-.275-.167-.641-.487-.648-.745-.054-1.948-.03-3.9-.03-6.069,1.677,1.036,3.155,1.944,4.628,2.86q9.962,6.2,19.91,12.412a1.767,1.767,0,0,0,2.036.077q18.184-9.724,36.4-19.382a1.3,1.3,0,0,0,.824-1.413c-.092-1.495.007-3.011-.2-4.488a9.716,9.716,0,0,0-9.622-8.4q-30.116-.041-60.233-.014a22.394,22.394,0,0,0-3.527.116,9.908,9.908,0,0,0-8.518,10.218q-.019,12.916,0,25.832c0,7.182-.013,14.363.005,21.544a9.906,9.906,0,0,0,10.188,10.26q30.706.025,61.411-.007c6.324-.007,10.454-4.167,10.477-10.5.027-7.5,0-15.006,0-22.509Z" transform="translate(-158.702 -187.929)" fill="#fff"/>
  </g>
</svg>
