<svg xmlns="http://www.w3.org/2000/svg" width="169.955" height="177.325" viewBox="0 0 169.955 177.325">
  <g id="Group_11" data-name="Group 11" transform="translate(-672.326 -239.743)">
    <path id="Path_1" data-name="Path 1" d="M693.461,313.653l-5.982-13.3q-3.208-7.131-6.415-14.262c-2.972-6.623-.619-12.777,5.991-15.741,10.635-4.769,21.347-9.376,31.864-14.393a11.709,11.709,0,0,1,16.215,6.12c7.348,16.806,15,33.477,22.491,50.223a1.983,1.983,0,0,0,2.2,1.376c3.53-.078,7.064-.029,10.759-.029l-4.321-14.719q-2.492-8.492-4.981-16.985c-.654-2.241.057-4.076,1.844-4.87,1.827-.812,3.429-.071,4.951,1.729a10.93,10.93,0,0,0,3.767,2.95,25.879,25.879,0,0,0,20.79.463,14.353,14.353,0,0,0,2.911-1.716,5.427,5.427,0,0,0,2.376-4.791c-.078-7.038.015-14.079-.055-21.118a7.319,7.319,0,0,0-14.41-1.877,46.232,46.232,0,0,0-.341,5.73,3.615,3.615,0,0,1-5.71,2.859,3.57,3.57,0,0,1-1.461-2.1c-.618-5.6-.167-10.974,4.259-15.155,4.455-4.208,9.713-5.4,15.421-3.289s9.124,6.405,9.543,12.518c.352,5.146.13,10.331.155,15.5.011,2.313.09,4.631-.02,6.939a5.457,5.457,0,0,0,2.484,4.892A18.886,18.886,0,0,0,817.564,284a27.07,27.07,0,0,0,13.3-1.952,9.665,9.665,0,0,0,4.661-3.7,3.56,3.56,0,0,1,4.568-1.263,3.674,3.674,0,0,1,1.912,4.6c-1.367,4.773-2.783,9.533-4.183,14.3q-2.37,8.066-4.747,16.13c-.137.466-.241.941-.4,1.553,1.825,0,3.541-.007,5.257,0,2.894.013,4.276,1.343,4.283,4.233q.035,16.835.026,33.672c0,9.993-.121,19.988.033,29.978.176,11.387-3.633,20.925-12.537,28.186a31.881,31.881,0,0,1-20.6,7.307q-37.66.067-75.32.016-13.809,0-27.617-.011c-18.979-.026-33.609-14.3-33.785-33.281-.172-18.557-.046-37.117-.051-55.675,0-3.348-.024-6.7-.007-10.042.016-3.025,1.415-4.391,4.458-4.394C682.276,313.649,687.736,313.653,693.461,313.653Zm141.374,7.478H679.785c0,.551,0,1.027,0,1.5q-.01,26.8-.008,53.593a80,80,0,0,0,.327,11.348,25.605,25.605,0,0,0,25.738,22.079q51.454.032,102.909-.022a26.127,26.127,0,0,0,4.985-.441c12.607-2.475,21.057-12.892,21.089-26.028.039-16.093.009-32.186.009-48.279Zm-84.793-7.467c-.225-.6-.325-.923-.463-1.229q-10.73-23.872-21.472-47.739c-1.218-2.7-3.015-3.338-5.753-2.106q-16.136,7.261-32.269,14.528c-2.865,1.291-3.554,3.079-2.273,5.932,4.391,9.774,8.807,19.537,13.157,29.329a1.9,1.9,0,0,0,2.091,1.3q20.812-.051,41.625-.013ZM771.458,289.7a4.457,4.457,0,0,0,.051.769c2.176,7.452,4.371,14.9,6.526,22.357.241.833.759.848,1.436.845,5.264-.019,10.528-.016,15.792-.02h2.489V287.987C789.177,292.37,780.484,292.337,771.458,289.7ZM805.451,288v25.669c6.146,0,12.142-.028,18.138.027a1.459,1.459,0,0,0,1.706-1.283c2.045-7.132,4.157-14.245,6.24-21.366.114-.39.156-.8.261-1.354C822.693,292.353,813.957,292.363,805.451,288Z" transform="translate(0)" fill="#fff"/>
    <path id="Path_2" data-name="Path 2" d="M912.365,601.017c0-1.427-.023-2.854.005-4.28.046-2.291.96-3.387,3.153-4.006,1.794-.507,3.606-.991,5.338-1.67,3.674-1.439,6.106-3.924,6.217-8.115.111-4.234-1.928-7.248-5.55-9.19-6.857-3.676-15.828.438-16.581,8.095a3.573,3.573,0,0,1-4.072,3.512c-2.107-.248-3.4-1.983-3.228-4.344.516-7.243,6.214-13.62,13.8-15.446a18.726,18.726,0,0,1,21.187,9.275,15.914,15.914,0,0,1-5.668,21.3,32.494,32.494,0,0,1-5.882,2.683,1.64,1.64,0,0,0-1.314,1.893c.065,1.571.036,3.149-.027,4.722a3.7,3.7,0,0,1-3.771,3.872c-2.1-.024-3.574-1.644-3.618-4.021-.026-1.426,0-2.853,0-4.28Z" transform="translate(-158.755 -229.192)" fill="#fff"/>
    <path id="Path_3" data-name="Path 3" d="M951.227,747.463a3.758,3.758,0,0,1-3.749-3.741,3.686,3.686,0,1,1,3.749,3.741Z" transform="translate(-193.877 -352.567)" fill="#fff"/>
    <path id="Path_4" data-name="Path 4" d="M743.166,380a3.736,3.736,0,0,1-3.772-3.711,3.7,3.7,0,0,1,7.4.023A3.689,3.689,0,0,1,743.166,380Z" transform="translate(-47.258 -93.643)" fill="#fff"/>
  </g>
</svg>
