<svg xmlns="http://www.w3.org/2000/svg" width="243.211" height="153.935" viewBox="0 0 243.211 153.935">
  <g id="Group_12" data-name="Group 12" transform="translate(-921.235 -520.781)">
    <path id="Path_9" data-name="Path 9" d="M984.545,617.842c8.117-8.549,15.876-16.814,23.762-24.954a8.464,8.464,0,0,0,2.563-5.975c1.531-32.1,27-60.181,59-65.209,37.851-5.947,72.683,17.422,81.255,54.513,9.324,40.351-18.608,80.9-59.8,85.957-29.53,3.624-52.726-7.6-69.583-32.074a5.436,5.436,0,0,0-2.7-1.958C1007.7,624.692,996.331,621.344,984.545,617.842Zm90.665-23.933c0,2.031-.085,3.5.049,4.95.044.479.649.907,1,1.357a5.567,5.567,0,0,0,1.01-1.236c1.052-2.535,1.969-5.128,3.08-7.636a10.445,10.445,0,0,1,1.773-2.167l.713.2c.442,2.119.741,4.284,1.385,6.341.315,1,1.142,2.357,1.969,2.547s2.017-.771,2.914-1.415a8.206,8.206,0,0,0,1.422-1.829c1.813,3.492,3.634,3.664,5.96.591.927-1.225,1.649-2.6,2.538-4.028a34.962,34.962,0,0,0,.793,3.507,1.96,1.96,0,0,0,2.837,1.266c2.417-.872,6.62-7.2,6.6-10.553-.655,1.077-.994,1.713-1.406,2.3-1.308,1.861-2.54,3.788-4,5.52-1.077,1.275-2.207.947-2.378-.745a42.427,42.427,0,0,1-.028-5.646c.1-3.025.278-6.046.422-9.057l-5.475,1.1-.177.543,3.544,1c-.093,1.4-.2,3.07-.313,4.727-5.818-.211-6.993.674-8.795,6.036a17.419,17.419,0,0,1-1.908,3.774,2.456,2.456,0,0,1-1.663.986c-.281.025-.806-.882-.94-1.435a37.383,37.383,0,0,0-.872-4.385c-.429-1.136-1.285-2.759-2.158-2.9-.927-.151-2.408.966-3.091,1.926a40.106,40.106,0,0,0-2.8,5.452l-.78-6.185c-1.014.753-1.967,1.159-1.94,1.487.265,3.251-2.141,5.045-3.826,7.2a2.366,2.366,0,0,1-1.95.876,2.478,2.478,0,0,1-1.026-1.9c-.128-2.24-.048-4.492-.048-6.407a30.991,30.991,0,0,0-5.18.323,7.342,7.342,0,0,0-5.624,9.317,4.185,4.185,0,0,0,2.066,2.76c.757.277,2.264-.517,2.96-1.274a45.548,45.548,0,0,0,3.533-4.981,5.322,5.322,0,0,0,.284,1.3c.574,1.046,1.022,2.642,1.88,2.92.885.288,2.439-.45,3.259-1.214A54.138,54.138,0,0,0,1075.21,593.909Zm24.908,12.458.468-.152q3.489,4.131,6.981,8.263c2.635,3.124,2.634,3.125,6.948,1.8-.9-6.134-1.8-12.305-2.728-18.678l-4.418.726,1.374,9.9a56.065,56.065,0,0,1-5.959-6.246c-2.556-2.982-4.279-3.306-8.143-1.457.892,6.092,1.79,12.215,2.7,18.462l4.406-.584C1101.19,614.259,1100.654,610.312,1100.118,606.366Zm19.311,9.438c2.605-.364,5-.66,7.387-1.05a17.559,17.559,0,0,0,3.181-.829,9.064,9.064,0,0,0,6.081-8.893c-.141-4.214-2.558-7.843-6.177-8.87-4.469-1.267-8.769.19-13.214.84C1117.622,603.423,1118.514,609.533,1119.429,615.8Zm-58.7,8.78c6.026.145,10.309-3.539,10.5-9.037.226-6.349-3.672-10.972-9.329-11.068-6.044-.1-10.308,3.622-10.459,9.135C1051.26,620.2,1054.85,624.443,1060.725,624.584Zm18.318-51.975c-.045-6.336-3.762-10.5-9.372-10.493-6.241,0-10.424,3.793-10.44,9.459-.019,6.3,3.943,10.7,9.558,10.631C1075.086,582.124,1079.086,578.381,1079.043,572.609Zm-5.936,30.629c.723,4.637,1.284,9.077,2.152,13.457a5.566,5.566,0,0,0,4.839,4.559,12.422,12.422,0,0,0,8.849-1.531c1.72-1.048,2.95-2.605,2.785-4.623-.39-4.742-1.037-9.464-1.6-14.38l-5.03.8c.614,4.2,1.235,8.151,1.752,12.115.307,2.363-.724,3.7-2.905,4.045-2.261.361-3.565-.531-4.062-2.859-.229-1.074-.334-2.175-.5-3.263-.455-2.987-.911-5.973-1.384-9.068Zm8.85-28.484c.551,1.267.888,3.7,1.862,3.988a13.914,13.914,0,0,0,11.784-1.537,5.518,5.518,0,0,0,2.654-6.081c-.491-2.53-2.286-3.664-4.646-4.02-1.941-.293-3.916-.364-5.847-.7-.584-.1-1.516-.786-1.5-1.169a2.289,2.289,0,0,1,1.12-1.777,12.935,12.935,0,0,1,4.35-.655,32.365,32.365,0,0,1,5.1,1.115c-.681-1.749-.825-3.755-1.8-4.327-3-1.753-10.2.048-12.523,2.7a5.172,5.172,0,0,0,2.394,8.53c1.864.533,3.91.407,5.8.865a10.349,10.349,0,0,1,2.736,1.683c-.862.678-1.708,1.908-2.588,1.933C1088.1,575.379,1085.341,575,1081.957,574.755Zm-47.625,34.066c.928,6.435,1.818,12.609,2.736,18.971l4.8-.783c-.35-2.742-.672-5.286-1.015-7.972l7.855-1.328c-.241-3.718-.239-3.7-3.595-3.148-1.538.254-3.085.446-4.817.692-.2-1.163-.388-2.215-.6-3.423l8.668-1.376-.555-3.6Zm80.324-52.918-16.764,2.443c.248,1.406.433,2.455.628,3.56l5.831-.673,2.261,15.119,4.823-.706-2.138-15.135,5.773-1.025Zm-69.348,29.38,13.643-2.022-.566-3.52-8.716,1.071-2.24-15.148-4.862.7C1043.487,572.705,1044.375,578.834,1045.308,585.282Z" transform="translate(11.526)"/>
    <path id="Path_10" data-name="Path 10" d="M968.361,588.333c3.228.031,4.895,1.275,5.8,3.946,2.748,8.111,5.44,16.24,8.156,24.361,1.121,3.352,2.284,6.689,3.362,10.055.877,2.738.141,5.184-2.128,6.339a4.321,4.321,0,0,1-3.241.231,52.99,52.99,0,0,0-23.769-3.846c-1.66.078-2.489-.239-3.022-1.978-1.726-5.631-3.607-11.219-5.575-16.771-.5-1.422-.186-2.064.981-2.862,6.961-4.758,12.942-10.459,17.154-17.893C966.593,589.009,967.968,588.593,968.361,588.333Z" transform="translate(4.82 12.298)"/>
    <path id="Path_11" data-name="Path 11" d="M949.786,606.766c2.174,6.508,4.263,12.759,6.438,19.269-2.878.981-5.669,1.947-8.47,2.884-3.5,1.174-7,2.378-10.526,3.468-4.362,1.349-8.023-.538-9.558-4.851-.579-1.626-1.106-3.274-1.615-4.926-1.281-4.166.38-7.868,4.464-9.328C936.8,611.039,943.153,609,949.786,606.766Z" transform="translate(0.8 15.654)"/>
    <path id="Path_12" data-name="Path 12" d="M937.026,635.089c.1-3.353,1.135-5.245,3.417-6.128,2.856-1.105,5.8-1.972,8.708-2.956,1.637-.554,2.559.1,2.971,1.687,1.873,7.232,3.736,14.467,5.637,21.692a2.3,2.3,0,0,1-1.649,3.124c-2.9.993-5.791,2.025-8.735,2.87-2.284.656-4.7-.189-5.354-2.3C940.1,646.854,938.512,640.525,937.026,635.089Z" transform="translate(2.875 19.121)"/>
    <path id="Path_13" data-name="Path 13" d="M974.094,598.9c4.292,0,7.537,2.238,8.735,5.737,1.268,3.7.091,7.377-3.43,10C977.627,609.387,975.892,604.238,974.094,598.9Z" transform="translate(9.623 14.222)"/>
    <path id="Path_14" data-name="Path 14" d="M927.074,627.856c-2.831,1.324-3.5,1.073-4.423-1.6-.356-1.033-.67-2.082-1-3.123-.869-2.721-.528-3.246,2.573-3.855C925.171,622.135,926.125,625,927.074,627.856Z" transform="translate(0 17.932)"/>
    <path id="Path_15" data-name="Path 15" d="M1064.113,585.069a54.109,54.109,0,0,1-4.4,5.3c-.82.764-2.374,1.5-3.259,1.214-.857-.278-1.305-1.874-1.88-2.92a5.318,5.318,0,0,1-.284-1.3,45.547,45.547,0,0,1-3.533,4.981c-.7.758-2.2,1.551-2.96,1.274a4.185,4.185,0,0,1-2.066-2.76,7.342,7.342,0,0,1,5.624-9.317,30.989,30.989,0,0,1,5.18-.323c0,1.915-.079,4.167.048,6.407a2.477,2.477,0,0,0,1.026,1.9,2.366,2.366,0,0,0,1.95-.876c1.686-2.153,4.091-3.947,3.826-7.2-.027-.328.926-.734,1.94-1.487l.78,6.185a40.123,40.123,0,0,1,2.8-5.452c.683-.96,2.164-2.077,3.091-1.926.874.142,1.729,1.765,2.158,2.9a37.381,37.381,0,0,1,.872,4.385c.134.553.658,1.46.94,1.435a2.455,2.455,0,0,0,1.663-.986,17.415,17.415,0,0,0,1.908-3.774c1.8-5.362,2.976-6.247,8.795-6.036.11-1.657.22-3.324.313-4.727l-3.544-1,.177-.543,5.475-1.1c-.144,3.011-.32,6.032-.422,9.057a42.468,42.468,0,0,0,.028,5.646c.172,1.691,1.3,2.02,2.378.745,1.462-1.732,2.694-3.66,4-5.52.411-.585.751-1.221,1.406-2.3.024,3.352-4.179,9.681-6.6,10.553a1.96,1.96,0,0,1-2.837-1.266,34.967,34.967,0,0,1-.793-3.507c-.889,1.426-1.611,2.8-2.538,4.028-2.326,3.073-4.147,2.9-5.96-.591a8.2,8.2,0,0,1-1.422,1.829c-.9.644-2.084,1.605-2.914,1.415s-1.655-1.544-1.969-2.547c-.644-2.057-.943-4.221-1.385-6.341l-.713-.2a10.441,10.441,0,0,0-1.773,2.167c-1.111,2.508-2.028,5.1-3.08,7.636a5.57,5.57,0,0,1-1.01,1.236c-.349-.45-.954-.878-1-1.357C1064.028,588.57,1064.113,587.1,1064.113,585.069Zm-9.72-1.127c-4.107-1.941-6.3-.8-6.8,3.189a6.42,6.42,0,0,0,.025,2.338,10.856,10.856,0,0,0,1.109,2.183c.69-.409,1.64-.653,2.024-1.256C1052.047,588.364,1053.139,586.2,1054.393,583.942Zm33.878-4.858c-3.846-2.092-6.162-.987-6.688,2.979a6.138,6.138,0,0,0-.013,2.326,11.824,11.824,0,0,0,1.193,2.325c.677-.439,1.6-.723,1.987-1.343C1086.027,583.341,1087.112,581.188,1088.271,579.084Z" transform="translate(22.623 8.84)" fill="#fff"/>
    <path id="Path_16" data-name="Path 16" d="M1083.162,594.536c.536,3.946,1.072,7.893,1.634,12.029l-4.406.584c-.915-6.247-1.812-12.37-2.7-18.463,3.864-1.849,5.588-1.525,8.143,1.457a56.049,56.049,0,0,0,5.959,6.246l-1.374-9.9,4.418-.726c.932,6.372,1.832,12.544,2.728,18.678-4.315,1.327-4.313,1.326-6.948-1.8q-3.488-4.135-6.981-8.263Z" transform="translate(28.482 11.831)" fill="#fff"/>
    <path id="Path_17" data-name="Path 17" d="M1099.078,604.271c-.915-6.271-1.807-12.381-2.744-18.8,4.446-.65,8.745-2.108,13.214-.84,3.62,1.027,6.037,4.656,6.177,8.87a9.063,9.063,0,0,1-6.08,8.893,17.564,17.564,0,0,1-3.181.829C1104.081,603.612,1101.683,603.907,1099.078,604.271Zm2.66-15.887c.6,4.014,1.172,7.8,1.746,11.611,3.014-.34,5.793-.651,6.81-3.744a6.593,6.593,0,0,0-1.349-6.846C1106.954,587.274,1104.458,587.571,1101.737,588.384Z" transform="translate(31.878 11.533)" fill="#fff"/>
    <path id="Path_18" data-name="Path 18" d="M1050.423,611.694c-5.875-.142-9.465-4.383-9.284-10.969.151-5.513,4.415-9.237,10.459-9.135,5.657.1,9.554,4.719,9.329,11.068C1060.732,608.155,1056.449,611.839,1050.423,611.694ZM1046,600.835a31.73,31.73,0,0,0,1.351,4.661,4.076,4.076,0,0,0,4.4,2.461,3.83,3.83,0,0,0,3.725-3.336,14.664,14.664,0,0,0-.085-4.608c-.525-3.039-2.579-4.806-5-4.589C1047.724,595.663,1046.432,597.35,1046,600.835Z" transform="translate(21.828 12.891)" fill="#fff"/>
    <path id="Path_19" data-name="Path 19" d="M1067.541,566.243c.042,5.772-3.958,9.514-10.255,9.6-5.615.073-9.577-4.333-9.558-10.631.016-5.666,4.2-9.454,10.44-9.459C1063.778,555.746,1067.5,559.907,1067.541,566.243Zm-4.8.3a35.643,35.643,0,0,0-1.461-4.674,3.968,3.968,0,0,0-4.456-2.378,3.891,3.891,0,0,0-3.657,3.465,15.8,15.8,0,0,0,.22,5.106c.645,2.869,2.858,4.393,5.266,4S1062.545,569.572,1062.738,566.543Z" transform="translate(23.029 6.366)" fill="#fff"/>
    <path id="Path_20" data-name="Path 20" d="M1059.467,590.927l4.895-.747c.473,3.095.929,6.081,1.384,9.068.167,1.087.272,2.188.5,3.262.5,2.329,1.8,3.22,4.062,2.859,2.182-.349,3.213-1.682,2.905-4.045-.516-3.964-1.138-7.914-1.752-12.115l5.03-.8c.564,4.916,1.21,9.637,1.6,14.38.165,2.018-1.065,3.575-2.785,4.623a12.422,12.422,0,0,1-8.849,1.531,5.566,5.566,0,0,1-4.839-4.559C1060.751,600,1060.19,595.564,1059.467,590.927Z" transform="translate(25.166 12.312)" fill="#fff"/>
    <path id="Path_21" data-name="Path 21" d="M1067.083,568.885c3.384.247,6.147.624,8.9.547.88-.025,1.726-1.254,2.588-1.933a10.349,10.349,0,0,0-2.736-1.683c-1.894-.459-3.94-.332-5.8-.865a5.172,5.172,0,0,1-2.394-8.53c2.318-2.652,9.519-4.454,12.523-2.7.98.572,1.124,2.578,1.8,4.328a32.366,32.366,0,0,0-5.1-1.115,12.935,12.935,0,0,0-4.35.655,2.289,2.289,0,0,0-1.12,1.777c-.017.383.916,1.067,1.5,1.169,1.93.338,3.906.409,5.847.7,2.359.356,4.155,1.491,4.646,4.02a5.518,5.518,0,0,1-2.654,6.081,13.914,13.914,0,0,1-11.784,1.537C1067.971,572.583,1067.634,570.152,1067.083,568.885Z" transform="translate(26.4 5.87)" fill="#fff"/>
    <path id="Path_22" data-name="Path 22" d="M1026.664,595.563l13.479-1.963.556,3.6-8.668,1.376c.212,1.208.4,2.26.6,3.423,1.732-.246,3.279-.437,4.817-.692,3.356-.556,3.354-.57,3.595,3.148l-7.855,1.327c.343,2.686.666,5.229,1.015,7.972l-4.8.782C1028.482,608.172,1027.592,602,1026.664,595.563Z" transform="translate(19.194 13.257)" fill="#fff"/>
    <path id="Path_23" data-name="Path 23" d="M1097.2,550.493l.414,3.584-5.773,1.025,2.138,15.135-4.823.706-2.261-15.119-5.831.673c-.195-1.105-.379-2.155-.628-3.56Z" transform="translate(28.983 5.409)" fill="#fff"/>
    <path id="Path_24" data-name="Path 24" d="M1036.372,578.37c-.934-6.448-1.821-12.577-2.741-18.925l4.862-.7,2.24,15.148,8.716-1.071.566,3.52Z" transform="translate(20.462 6.912)" fill="#fff"/>
    <path id="Path_25" data-name="Path 25" d="M1054.085,581.835c-1.254,2.262-2.346,4.422-3.641,6.454-.384.6-1.333.847-2.024,1.256a10.862,10.862,0,0,1-1.109-2.183,6.42,6.42,0,0,1-.025-2.338C1047.787,581.035,1049.978,579.894,1054.085,581.835Z" transform="translate(22.931 10.947)"/>
    <path id="Path_26" data-name="Path 26" d="M1082.732,577.743c-1.159,2.1-2.244,4.257-3.521,6.287-.39.619-1.31.9-1.987,1.343a11.817,11.817,0,0,1-1.193-2.325,6.138,6.138,0,0,1,.013-2.326C1076.57,576.756,1078.885,575.651,1082.732,577.743Z" transform="translate(28.161 10.181)"/>
    <path id="Path_27" data-name="Path 27" d="M1100.905,587.823c2.721-.813,5.216-1.11,7.207,1.021a6.593,6.593,0,0,1,1.349,6.846c-1.016,3.092-3.8,3.4-6.81,3.744C1102.078,595.621,1101.508,591.837,1100.905,587.823Z" transform="translate(32.71 12.094)"/>
    <path id="Path_28" data-name="Path 28" d="M1045.247,600.247c.436-3.486,1.728-5.173,4.388-5.41,2.425-.217,4.479,1.55,5,4.589a14.668,14.668,0,0,1,.085,4.608,3.83,3.83,0,0,1-3.725,3.336,4.076,4.076,0,0,1-4.4-2.461A31.719,31.719,0,0,1,1045.247,600.247Z" transform="translate(22.577 13.479)"/>
    <path id="Path_29" data-name="Path 29" d="M1061.917,565.976c-.193,3.028-1.677,5.129-4.089,5.52s-4.621-1.132-5.266-4a15.817,15.817,0,0,1-.22-5.107,3.892,3.892,0,0,1,3.657-3.465,3.968,3.968,0,0,1,4.456,2.378A35.7,35.7,0,0,1,1061.917,565.976Z" transform="translate(23.849 6.933)"/>
  </g>
</svg>
